<svg width="85" height="89" xmlns="http://www.w3.org/2000/svg" xmlns:xlink="http://www.w3.org/1999/xlink" xml:space="preserve" overflow="hidden"><defs><clipPath id="clip0"><rect x="116" y="46" width="85" height="89"/></clipPath></defs><g clip-path="url(#clip0)" transform="translate(-116 -46)"><path d="M83.803 39.2826C83.803 50.8534 74.423 60.2334 62.8522 60.2334 51.2814 60.2334 41.9015 50.8534 41.9015 39.2826 41.9015 27.7119 51.2814 18.3319 62.8522 18.3319 74.423 18.3319 83.8029 27.7119 83.803 39.2826Z" transform="matrix(1.02099 0 0 1 94.2767 28.0632)"/><path d="M104.754 107.373 104.754 86.4218C104.754 83.2792 103.182 80.1366 100.564 78.0415 94.8021 73.3276 87.4693 70.185 80.1366 68.0899 74.8989 66.5186 69.1374 65.4711 62.8522 65.4711 57.0908 65.4711 51.3293 66.5186 45.5679 68.0899 38.2351 70.185 30.9023 73.8514 25.1409 78.0415 22.522 80.1366 20.9507 83.2792 20.9507 86.4218L20.9507 107.373 104.754 107.373Z" transform="matrix(1.02099 0 0 1 94.2767 28.0632)"/></g></svg>